<svg xmlns="http://www.w3.org/2000/svg" width="124" height="32" viewBox="0 0 124 32" fill="none"><path d="M0 16C0 7.17818 7.17818 0 16 0c8.8218 0 16 7.17818 16 16 0 8.8218-7.1782 16-16 16h-4.2145c-.2 0-.3637-.1636-.3637-.3636v-4.8619c0-.2.1637-.3636.3637-.3636H16c5.7418 0 10.4109-4.6691 10.4109-10.4109S21.7418 5.58909 16 5.58909 5.58909 10.2582 5.58909 16v15.6364c0 .2-.16364.3636-.36364.3636H.363636C.163636 32 0 31.8364 0 31.6364V16z" fill="url(#paint0_linear)"/><path fill-rule="evenodd" clip-rule="evenodd" d="M117.396 10.12c-1.658 0-4.131.8109-5.28 3.1127-.949-1.9963-2.741-3.1127-5.076-3.1127-1.793 0-4.131 1.1491-4.469 3.4873v-2.6728c0-.2254-.182-.4072-.407-.4072h-3.6186c-.2254 0-.4072.1818-.4072.4072v5.731c-.6837-3.9855-4.0473-6.5455-8.0909-6.5455-3.4728 0-6.5782 1.92-7.8182 5.1455-1.1527-3.171-4.1709-5.1455-7.72-5.1455-2.4691 0-4.7527.9745-6.3127 2.6909l.4472-1.8545c.0473-.2-.0581-.4-.2472-.4764-.6582-.2618-1.4546-.36-2.1782-.36-1.9637 0-3.7564 1.1491-4.6364 3.7927v-2.9782c0-.2254-.1818-.4072-.4073-.4072h-3.9927v.08c-1.0291-2.40003-3.2727-4.23275-6.9418-4.23275h-9.1491c-.2 0-.3636.16363-.3636.36363l.0036 19.18912c0 .2254.1818.4072.4073.4072h3.8909c.2254 0 .4073-.1818.4073-.4072l-.0255-4.4109h4.8073c3.6763 0 5.9345-1.7928 6.9672-4.1746v8.5855c0 .2254.1819.4072.4073.4072h3.6218c.2255 0 .4073-.1818.4073-.4072V20.92c0-4.5018 1.5564-6.6327 3.8255-6.6327.4036 0 .9345.04 1.5709.2654-.5637 1.1237-.8946 2.4291-.8946 3.8982 0 4.8727 3.5528 8.2909 8.4291 8.2909 2.64 0 5.2546-1.0727 6.7818-2.8982.1309-.1563.1164-.3927-.0291-.5381l-2.0327-2.0582c-.1563-.1564-.4073-.1637-.5636-.0109-.9855.9563-2.4109 1.5745-3.8909 1.5745-2.0327 0-3.4909-1.0182-4.0109-2.7745h10.9891c.6872 4.0072 3.9672 6.6981 8.2872 6.6981 2.64 0 5.2546-1.0727 6.7819-2.8981.1309-.1564.1163-.3928-.0291-.5382l-2.0255-2.0546c-.1564-.1563-.4073-.1636-.5636-.0109-.9855.9564-2.4109 1.5746-3.8909 1.5746-2.0328 0-3.491-1.0182-4.011-2.7746h11.7964v5.8946c0 .2254.1818.4072.4073.4072h3.6219c.225 0 .407-.1818.407-.4072v-7.92c0-2.8437 1.626-3.7237 3.215-3.7237 1.487 0 2.774 1.0837 2.774 3.5891v8.0546c0 .2254.182.4072.408.4072h3.621c.226 0 .408-.1818.408-.4072v-7.3782c0-2.9455 1.218-4.2982 3.112-4.2655 1.557 0 2.844 1.0509 2.844 3.52v8.1237c0 .2254.182.4072.407.4072h3.655c.225 0 .407-.1818.407-.4072v-8.2582c-.007-4.7382-2.073-7.5491-6.033-7.5491zM50 17.4109h-4.5673v-6.8727h4.6364c2.2 0 3.0473 1.76 3.0473 3.4509 0 1.6618-.8473 3.4218-3.1164 3.4218zm40.1491-3.4654c1.9054 0 3.3745 1.08 3.6254 2.7927h-7.4181c.5381-1.9491 2.04-2.7927 3.7927-2.7927zm-15.5382 0c1.9055 0 3.3745 1.08 3.6255 2.7927h-7.4182c.5418-1.9491 2.04-2.7927 3.7927-2.7927z" fill="url(#paint1_linear)"/><path d="M20.5782 16c0-2.5236-2.0546-4.5782-4.5782-4.5782-2.5236 0-4.5782 2.0546-4.5782 4.5782v4.2145c0 .2.1637.3637.3637.3637H16c2.5236 0 4.5782-2.0546 4.5782-4.5782z" fill="url(#paint2_linear)"/><defs><linearGradient id="paint0_linear" x1="0" y1="32" x2="0" y2="0" gradientUnits="userSpaceOnUse"><stop stop-color="#D10056"/><stop offset="1" stop-color="#ED0D6C"/></linearGradient><linearGradient id="paint1_linear" x1="0" y1="32" x2="0" y2="0" gradientUnits="userSpaceOnUse"><stop stop-color="#D10056"/><stop offset="1" stop-color="#ED0D6C"/></linearGradient><linearGradient id="paint2_linear" x1="0" y1="32" x2="0" y2="0" gradientUnits="userSpaceOnUse"><stop stop-color="#D10056"/><stop offset="1" stop-color="#ED0D6C"/></linearGradient></defs></svg>